<svg xmlns="http://www.w3.org/2000/svg" viewBox="0 0 1647.79 1934.97"><defs><style>.cls-1{fill:#fff;}</style></defs><g id="Calque_2" data-name="Calque 2"><g id="Calque_2-2" data-name="Calque 2"><path class="cls-1" d="M1052.37,17.82c-1.36.11-3.35,2-4.43,2.7-3.77,2.47-7.51,5-11.24,7.53q-20.1,13.64-40,27.48-64.86,44.81-129.42,90Q789,200.13,710.8,254.86l-134.2,94c-21.75,15.24-43.69,30.24-65.25,45.74l-.94.66,84.87,52.9V117.31c0-15.3.27-30.62,0-45.91v-.68L521.84,27.14,576,64.86l129.22,90,157,109.34,135,94,65.64,45.71.93.65a640.89,640.89,0,0,0,60,37.41c1.43.77,12.62,7.44,13.41,6.17s-12.09-9.77-11.45-9.32l-54.18-37.72-129.22-90-157-109.34-135-94L584.73,62.05l-.94-.65C568.87,51,553.44,41.32,537.74,32c-5.74-3.4-11.5-6.75-17.4-9.89-.2-.11-10-4.81-10-4.33v362c0,4.56-.92,10.24,0,14.73a3.86,3.86,0,0,1,0,.68c0,2.26,11.54,9.38,11.45,9.32,9.62,6.77,19.6,13.16,29.6,19.35s20,12.44,30.41,18.06c2,1.1,11.45,7.54,13.41,6.17q26.88-18.87,53.79-37.72,64.2-45,128.45-90,78.18-54.71,156.42-109.32,67.47-47.09,135.07-94,22.46-15.54,45-31c4.74-3.23,9.49-6.47,14.26-9.66,2.35-1.58,5.77-3.07,7.77-5.08a2.89,2.89,0,0,1,1.23-.66c.16,0-13.23-10.58-11.45-9.32-9.62-6.77-19.6-13.16-29.6-19.36s-20-12.43-30.4-18c-3.47-1.88-9.39-6.51-13.41-6.17Z"/><path class="cls-1" d="M.18,88.54v557.8c0,1.77-.65,5.46.54,6.31,1.34,1,6.91,0,8.49,0H1601c1.81,0,8.51-12.94,8.12-12.28,5.93-10.17,11.52-20.59,17-31s10.91-20.91,15.87-31.6c1.81-3.91,5.47-9.3,5.47-13.67V8.54c0-2,.73-5.63,0-7.52a3.35,3.35,0,0,1,0-1c0,.8-8.67,13.23-8.12,12.28-5.93,10.17-11.52,20.59-17,31s-10.91,20.9-15.91,31.58c-1.81,3.91-5.47,9.31-5.47,13.67V583.17c0,22.82-.31,45.66,0,68.47v1l46.47-88.56H55.11c-1.4,0-6.92.9-8.08,0s-.42-5.47-.42-7.08V0c0,.8-8.67,13.23-8.12,12.28-5.93,10.17-11.52,20.59-17,31S10.58,64.2,5.63,74.88C3.81,78.79.15,84.19.15,88.55Z"/><path class="cls-1" d="M850.72,467.91c-2.84,2.2-4.86,5.42-7,8.3-7.68,10.6-14.82,21.6-21.89,32.61-7.7,12-15.77,24.27-22.28,37-1,2-2.36,4.06-2.7,6.39v.52c-.11,1,0,2.08-.06,3.1-.06,4.72-.07,9.45-.09,14.18q-.13,28.2-.13,56.41-.06,42.76-.06,85.53V934.49q0,59,.07,118l.09,110.86q0,46.74.08,93.48l.06,67.6v20.94c0,3.39-.67,7.62,0,11a7.84,7.84,0,0,1,0,1.37,10,10,0,0,0,3.06-3.16q3.28-4,6.18-8.32c6.81-9.59,13.28-19.5,19.59-29.43s12.65-19.91,18.46-30.17c2-3.54,6.52-9.07,6.52-13.21v-79.79q0-43.06-.08-86.13,0-52.8-.08-105.6,0-57.63-.08-115.26V568.34q0-33.3.1-66.61c0-10.72.45-21.52.18-32.24a9.11,9.11,0,0,1,.06-1.65l-.45,1.84h0L796.9,552.14h0c3.68-2.87,6.67-7.86,9.24-11.48,6.81-9.6,13.28-19.51,19.59-29.44s12.65-19.91,18.46-30.16l3.82-6.84a15.81,15.81,0,0,0,2.7-6.37Z"/><path class="cls-1" d="M34.44,1933.39V1433c0-23-1.33-46.51,0-69.51v-1l-.22,1.88H1570.07c20.74,0,41.51.3,62.26,0h2.72l-21.87-95.75V1769c0,23.14-.69,46.39,0,69.52v1c0,7.26,2.28,15.79,3.61,22.74q3.63,18.9,8.11,37.67c2.3,9.68,4.5,19.45,7.52,28.94.3,1,2.85,9.56,2.85,4.53V1433c0-23.13.69-46.39,0-69.51v-1c0-7.24-2.26-15.81-3.61-22.74q-3-15.64-6.63-31.18c-2.13-9.33-4.27-18.68-6.84-27.89-.51-1.81-3-13.94-4.79-13.94H36.71c-6.82,0-14.67-1.09-21.41,0a17.64,17.64,0,0,1-2.72,0l-.22,1.88V1769c0,23.14-.69,46.39,0,69.52v1c0,7.26,2.27,15.79,3.6,22.74q3.63,18.9,8.11,37.67c2.31,9.68,4.5,19.45,7.52,28.94.31,1,2.85,9.56,2.85,4.53Z"/></g></g></svg>